<svg xmlns="http://www.w3.org/2000/svg" xml:space="preserve" width="2000" height="375" data-id="lg_KpPpZ4tRbk1dKE4dA4" data-version="1" viewBox="0 0 2000 375"><g data-padding="20"><g transform="translate(10 6.602)scale(.96479)"><rect width="586.32" height="394.37" x="487.537" y="-197.343" fill="none" rx="0" ry="0" transform="matrix(.95 0 0 .95 278.75 187.65)"/><path fill="#212121" d="M1055.252 52.4v69.57q-52.01-1.66-101.04-1.99v172.93h-82.82V119.98q-49.36.33-100.71 1.99V52.4Zm255.1 240.51h-85.81q-6.29-18.88-16.89-47.37h-105.68l-16.57 47.37h-83.15l92.76-240.51h121.91Zm-189.5-99.05h67.91q-12.58-34.79-25.84-69.57l-7.95-21.54q-11.59 30.15-34.12 91.11"/></g><path fill="transparent" stroke="transparent" d="M716 0h568v375H716z"/></g></svg>